<mxfile host="app.diagrams.net" modified="2024-03-12T11:40:13.440Z" agent="Mozilla/5.0 (Windows NT 10.0; Win64; x64) AppleWebKit/537.36 (KHTML, like Gecko) Chrome/122.0.0.0 Safari/537.36" version="24.0.5" etag="HUdqBZAnXNLzbLAdU_kn" type="github">
  <diagram name="PÃ¡gina-1" id="eBi3r5bI5tWaVr12a482">
    <mxGraphModel>
      <root>
        <mxCell id="0" />
        <mxCell id="1" parent="0" />
      </root>
    </mxGraphModel>
  </diagram>
</mxfile>
